<?xml version="1.0" encoding="UTF-8" standalone="no" ?>
<!DOCTYPE svg PUBLIC "-//W3C//DTD SVG 1.1//EN" "http://www.w3.org/Graphics/SVG/1.1/DTD/svg11.dtd">
<svg xmlns="http://www.w3.org/2000/svg" xmlns:xlink="http://www.w3.org/1999/xlink" version="1.1" width="1200" height="100" viewBox="0 0 1080 100" xml:space="preserve">
<desc>Created with Fabric.js 5.2.4</desc>
<defs>
</defs>
<g transform="matrix(0 0 0 0 0 0)" id="c1652364-e9ed-4103-ba94-095427e045ec"  >
</g>
<g transform="matrix(1 0 0 1 540 50)" id="6ca68167-a7fe-4156-9da7-3194a20569c8"  >
<rect style="stroke: none; stroke-width: 1; stroke-dasharray: none; stroke-linecap: butt; stroke-dashoffset: 0; stroke-linejoin: miter; stroke-miterlimit: 4; fill: rgb(255,255,255); fill-rule: nonzero; opacity: 1; visibility: hidden;" vector-effect="non-scaling-stroke"  x="-540" y="-50" rx="0" ry="0" width="1080" height="100" />
</g>
<g transform="matrix(0.09 0 0 0.09 539.38 55.7)" id="container"  >
</g>
<g transform="matrix(0.09 0 0 0.09 538.67 55.33)" id="icon_container"  >
</g>
<g transform="matrix(1.72 0 0 1.72 -14.52 53.74)"  >
<path style="stroke: rgb(89,65,249); stroke-width: 0; stroke-dasharray: none; stroke-linecap: butt; stroke-dashoffset: 0; stroke-linejoin: miter; stroke-miterlimit: 2; fill: rgb(89,65,249); fill-rule: nonzero; opacity: 1;" vector-effect="non-scaling-stroke"  transform=" translate(-209.36, 24.77)" d="M 187.68612 -19.08 L 187.68612 -43.992 Q 187.68612 -45.504 188.26211999999998 -46.656 Q 188.91011999999998 -47.808 189.77411999999998 -48.6 Q 190.71012 -49.392 191.79011999999997 -49.752 Q 192.94211999999996 -50.184000000000005 193.95012999999997 -50.184000000000005 L 199.35011999999998 -50.184000000000005 Q 200.14211999999998 -50.184000000000005 200.64611999999997 -49.68000000000001 Q 201.22211999999996 -49.17600000000001 201.22211999999996 -48.38400000000001 L 201.22211999999996 -19.224000000000007 Q 201.22211999999996 -15.120000000000008 203.09411999999998 -12.744000000000007 Q 205.03811999999996 -10.368000000000007 209.35811999999999 -10.368000000000007 Q 213.67811999999998 -10.368000000000007 215.55012 -12.744000000000007 Q 217.49411999999998 -15.120000000000006 217.49411999999998 -19.224000000000007 L 217.49411999999998 -44.06400000000001 Q 217.49411999999998 -45.57600000000001 218.07011999999997 -46.72800000000001 Q 218.71811999999997 -47.88000000000001 219.65411999999998 -48.67200000000001 Q 220.59011999999998 -49.46400000000001 221.67011999999997 -49.82400000000001 Q 222.75011999999998 -50.18400000000001 223.75811999999996 -50.18400000000001 L 229.15811999999997 -50.18400000000001 Q 229.95012999999997 -50.18400000000001 230.45411999999996 -49.680000000000014 Q 231.03011999999995 -49.176000000000016 231.03011999999995 -48.384000000000015 L 231.03011999999995 -19.080000000000016 Q 231.03011999999995 -13.968000000000016 229.44611999999995 -10.224000000000016 Q 227.93411999999995 -6.552000000000016 225.12611999999996 -4.104000000000016 Q 222.31811999999996 -1.7280000000000162 218.28611999999995 -0.504000000000016 Q 214.32611999999995 0.6479999999999839 209.43011999999996 0.6479999999999839 Q 204.60611999999995 0.6479999999999839 200.57411999999997 -0.504000000000016 Q 196.54211999999995 -1.656000000000016 193.66211999999996 -4.032000000000016 Q 190.85411999999997 -6.480000000000016 189.27011999999996 -10.224000000000016 Q 187.68611999999996 -13.968000000000016 187.68611999999996 -19.080000000000016 z" stroke-linecap="round" />
</g>
<g transform="matrix(1.72 0 0 1.72 76.33 52.85)"  >
<path style="stroke: rgb(97,69,245); stroke-width: 0; stroke-dasharray: none; stroke-linecap: butt; stroke-dashoffset: 0; stroke-linejoin: miter; stroke-miterlimit: 2; fill: rgb(97,69,245); fill-rule: nonzero; opacity: 1;" vector-effect="non-scaling-stroke"  transform=" translate(-259.08, 25.31)" d="M 240.57125 -2.016 L 240.57125 -44.208 Q 240.57125 -45.576 241.07524999999998 -46.728 Q 241.65124999999998 -47.88 242.51524999999998 -48.672000000000004 Q 243.37924999999998 -49.464000000000006 244.53124999999997 -49.896 Q 245.68324999999996 -50.4 246.83524999999997 -50.4 L 252.37924999999998 -50.4 Q 253.24325 -50.4 253.67524999999998 -49.896 Q 254.17924999999997 -49.392 254.17924999999997 -48.6 L 254.17924999999997 -13.68 Q 254.17924999999997 -13.104 254.75524999999996 -12.24 Q 255.33124999999995 -11.448 256.33924999999994 -11.448 L 275.70724999999993 -11.448 Q 276.42724999999996 -11.448 277.0032499999999 -10.944 Q 277.57924999999994 -10.440000000000001 277.57924999999994 -9.648000000000001 L 277.57924999999994 -2.016000000000002 Q 277.57924999999994 -1.2240000000000018 277.0032499999999 -0.7200000000000017 Q 276.4272499999999 -0.21600000000000175 275.70724999999993 -0.21600000000000175 L 242.37124999999992 -0.21600000000000175 Q 241.65124999999992 -0.21600000000000175 241.07524999999993 -0.7200000000000017 Q 240.57124999999994 -1.2960000000000016 240.57124999999994 -2.016000000000002 z" stroke-linecap="round" />
</g>
<g transform="matrix(1.72 0 0 1.72 158.11 53.13)"  >
<path style="stroke: rgb(106,74,242); stroke-width: 0; stroke-dasharray: none; stroke-linecap: butt; stroke-dashoffset: 0; stroke-linejoin: miter; stroke-miterlimit: 2; fill: rgb(106,74,242); fill-rule: nonzero; opacity: 1;" vector-effect="non-scaling-stroke"  transform=" translate(-303.29, 25.16)" d="M 296.55912 -1.872 L 296.55912 -14.688 Q 296.55912 -15.84 296.27112 -16.992 Q 295.98312 -18.216 295.55113 -19.008000000000003 L 279.99912 -47.952 Q 279.78312 -48.312 279.78312 -48.744 Q 279.78312 -49.32 280.21512 -49.752 Q 280.71913 -50.256 281.29512 -50.256 L 290.72712 -50.256 Q 291.51912 -50.256 292.23912 -49.824 Q 293.03112 -49.464 293.31912 -48.672 Q 295.91113 -43.992 297.99912 -40.248 Q 299.22312 -37.943999999999996 299.94312 -36.576 Q 300.73512 -35.28 301.31112 -34.128 Q 301.95912000000004 -32.976 302.39112 -32.184 Q 302.89512 -31.391999999999996 302.96712 -31.247999999999998 Q 303.11113 -31.031999999999996 303.32713 -31.031999999999996 Q 303.54313 -31.031999999999996 303.61512 -31.247999999999998 Q 303.68712 -31.391999999999996 304.11912 -32.184 Q 304.62313 -33.047999999999995 305.27112 -34.272 Q 305.99112 -35.495999999999995 306.85512 -37.08 Q 307.71913 -38.664 308.58312 -40.248 Q 310.67113 -43.992 313.26312 -48.672 Q 314.19912 -50.256 315.85512 -50.256 L 325.28712 -50.256 Q 325.86313 -50.256 326.29512 -49.752 Q 326.79912 -49.32 326.79912 -48.744 Q 326.79912 -48.312 326.58312 -47.952 Q 322.40712 -40.176 319.02312 -33.983999999999995 Q 317.00712 -30.167999999999996 315.78312 -27.935999999999993 Q 314.63112 -25.775999999999993 313.62313 -23.831999999999994 Q 312.61512 -21.959999999999994 311.89512 -20.59199999999999 Q 311.17512 -19.295999999999992 311.03112000000004 -19.07999999999999 Q 310.52712 -18.14399999999999 310.23912000000007 -16.99199999999999 Q 310.02312000000006 -15.91199999999999 310.02312000000006 -14.90399999999999 L 310.02312000000006 -1.8719999999999892 Q 310.02312000000006 -1.0079999999999893 309.51912000000004 -0.5039999999999891 Q 309.01512 -0.07199999999998913 308.15112000000005 -0.07199999999998913 L 298.3591200000001 -0.07199999999998913 Q 297.5671200000001 -0.07199999999998913 297.06313000000006 -0.5759999999999892 Q 296.55912000000006 -1.0799999999999892 296.55912000000006 -1.8719999999999892 z" stroke-linecap="round" />
</g>
<g transform="matrix(1.72 0 0 1.72 244.79 52.98)"  >
<path style="stroke: rgb(114,78,238); stroke-width: 0; stroke-dasharray: none; stroke-linecap: butt; stroke-dashoffset: 0; stroke-linejoin: miter; stroke-miterlimit: 2; fill: rgb(114,78,238); fill-rule: nonzero; opacity: 1;" vector-effect="non-scaling-stroke"  transform=" translate(-350.52, 25.24)" d="M 372.37625 -15.264 Q 372.37625 -10.872 370.36025 -7.775999999999999 Q 368.34425 -4.751999999999999 365.17625 -2.879999999999999 Q 362.00825 -1.079999999999999 358.12025 -0.21599999999999886 Q 354.23225 0.5760000000000012 350.56025 0.5760000000000012 Q 348.04025 0.5760000000000012 345.30425 0.2160000000000012 Q 342.56825000000003 -0.07199999999999879 339.97625000000005 -0.9359999999999987 Q 337.45625000000007 -1.7999999999999987 335.15225000000004 -3.167999999999999 Q 332.92025 -4.607999999999999 331.33625000000006 -6.767999999999999 Q 328.7442500000001 -10.079999999999998 328.6722500000001 -13.895999999999999 Q 328.6722500000001 -14.543999999999999 329.1042500000001 -14.975999999999999 Q 329.6802500000001 -15.408 330.2562500000001 -15.408 L 339.7602500000001 -15.408 Q 340.6962500000001 -15.408 341.2002500000001 -15.12 Q 341.7762500000001 -14.831999999999999 342.3522500000001 -14.111999999999998 Q 343.6482500000001 -11.807999999999998 345.8082500000001 -10.943999999999999 Q 348.0402500000001 -10.152 350.5602500000001 -10.152 Q 351.6402500000001 -10.152 353.0082500000001 -10.296 Q 354.3762500000001 -10.511999999999999 355.6002500000001 -10.943999999999999 Q 356.82425000000006 -11.447999999999999 357.6882500000001 -12.312 Q 358.5522500000001 -13.176 358.5522500000001 -14.616 Q 358.5522500000001 -16.488 357.04025000000007 -17.352 Q 355.52825000000007 -18.288 354.01625000000007 -18.792 Q 352.8642500000001 -19.152 351.1362500000001 -19.584000000000003 Q 349.48025000000007 -20.016000000000002 347.2482500000001 -20.520000000000003 Q 343.9362500000001 -21.168000000000003 340.8402500000001 -22.176000000000002 Q 337.7442500000001 -23.184 335.2962500000001 -24.912000000000003 Q 332.9202500000001 -26.640000000000004 331.4082500000001 -29.232000000000003 Q 329.9682500000001 -31.896000000000004 329.9682500000001 -35.784000000000006 Q 329.9682500000001 -39.888000000000005 331.76825000000014 -42.76800000000001 Q 333.64025000000015 -45.720000000000006 336.52025000000015 -47.52000000000001 Q 339.40025000000014 -49.39200000000001 342.92825000000016 -50.18400000000001 Q 346.5282500000002 -51.04800000000001 350.05625000000015 -51.04800000000001 Q 352.5042500000001 -51.04800000000001 355.02425000000017 -50.61600000000001 Q 357.61625000000015 -50.184000000000005 359.9922500000002 -49.248000000000005 Q 362.36825000000016 -48.312000000000005 364.3842500000002 -46.87200000000001 Q 366.4722500000002 -45.43200000000001 368.0562500000002 -43.416000000000004 Q 370.5042500000002 -40.176 370.6482500000002 -37.008 Q 370.6482500000002 -36.432 370.2162500000002 -35.856 Q 369.78425000000016 -35.424 369.1362500000002 -35.424 L 359.1282500000002 -35.424 Q 357.5442500000002 -35.424 356.6802500000002 -36.72 Q 356.3922500000002 -37.728 355.67225000000025 -38.376 Q 354.9522500000002 -39.096 353.94425000000024 -39.455999999999996 Q 353.00825000000026 -39.888 352.0002500000002 -40.032 Q 350.99225000000024 -40.248 350.0562500000002 -40.248 Q 348.9762500000002 -40.248 347.8242500000002 -40.104 Q 346.7442500000002 -39.96 345.80825000000016 -39.455999999999996 Q 344.9442500000002 -39.023999999999994 344.29625000000016 -38.16 Q 343.72025000000014 -37.367999999999995 343.72025000000014 -36.071999999999996 Q 343.72025000000014 -33.983999999999995 345.88025000000016 -32.76 Q 348.0402500000002 -31.607999999999997 353.8722500000002 -30.383999999999997 Q 357.3282500000002 -29.807999999999996 360.64025000000015 -28.871999999999996 Q 364.02425000000017 -27.935999999999996 366.61625000000015 -26.279999999999998 Q 369.20825000000013 -24.624 370.79225000000014 -21.959999999999997 Q 372.37625000000014 -19.368 372.37625000000014 -15.263999999999998 z" stroke-linecap="round" />
</g>
<g transform="matrix(1.72 0 0 1.72 332.71 52.98)"  >
<path style="stroke: rgb(122,83,234); stroke-width: 0; stroke-dasharray: none; stroke-linecap: butt; stroke-dashoffset: 0; stroke-linejoin: miter; stroke-miterlimit: 2; fill: rgb(122,83,234); fill-rule: nonzero; opacity: 1;" vector-effect="non-scaling-stroke"  transform=" translate(-398.48, 25.24)" d="M 420.32938 -15.264 Q 420.32938 -10.872 418.31337 -7.775999999999999 Q 416.29737 -4.751999999999999 413.12937 -2.879999999999999 Q 409.96137 -1.079999999999999 406.07337 -0.21599999999999886 Q 402.18538 0.5760000000000012 398.51337 0.5760000000000012 Q 395.99338 0.5760000000000012 393.25738 0.2160000000000012 Q 390.52137 -0.07199999999999879 387.92937 -0.9359999999999987 Q 385.40937 -1.7999999999999987 383.10537 -3.167999999999999 Q 380.87336999999997 -4.607999999999999 379.28937 -6.767999999999999 Q 376.69738 -10.079999999999998 376.62538 -13.895999999999999 Q 376.62538 -14.543999999999999 377.05737 -14.975999999999999 Q 377.63337 -15.408 378.20938 -15.408 L 387.71337 -15.408 Q 388.64938 -15.408 389.15337 -15.12 Q 389.72937 -14.831999999999999 390.30538 -14.111999999999998 Q 391.60138 -11.807999999999998 393.76137 -10.943999999999999 Q 395.99338 -10.152 398.51337 -10.152 Q 399.59337 -10.152 400.96137 -10.296 Q 402.32938 -10.511999999999999 403.55338 -10.943999999999999 Q 404.77737 -11.447999999999999 405.64137 -12.312 Q 406.50538 -13.176 406.50538 -14.616 Q 406.50538 -16.488 404.99338 -17.352 Q 403.48138 -18.288 401.96938 -18.792 Q 400.81737 -19.152 399.08938 -19.584000000000003 Q 397.43337 -20.016000000000002 395.20137 -20.520000000000003 Q 391.88937 -21.168000000000003 388.79338 -22.176000000000002 Q 385.69738 -23.184 383.24937 -24.912000000000003 Q 380.87337 -26.640000000000004 379.36137 -29.232000000000003 Q 377.92137 -31.896000000000004 377.92137 -35.784000000000006 Q 377.92137 -39.888000000000005 379.72138 -42.76800000000001 Q 381.59337 -45.720000000000006 384.47337 -47.52000000000001 Q 387.35338 -49.39200000000001 390.88137 -50.18400000000001 Q 394.48138 -51.04800000000001 398.00937 -51.04800000000001 Q 400.45738 -51.04800000000001 402.97737 -50.61600000000001 Q 405.56937 -50.184000000000005 407.94538 -49.248000000000005 Q 410.32137 -48.312000000000005 412.33737 -46.87200000000001 Q 414.42538 -45.43200000000001 416.00937000000005 -43.416000000000004 Q 418.45738000000006 -40.176 418.60138000000006 -37.008 Q 418.60138000000006 -36.432 418.1693700000001 -35.856 Q 417.73737000000006 -35.424 417.08938000000006 -35.424 L 407.08137000000005 -35.424 Q 405.49737000000005 -35.424 404.63337000000007 -36.72 Q 404.34537000000006 -37.728 403.62538000000006 -38.376 Q 402.90537000000006 -39.096 401.8973700000001 -39.455999999999996 Q 400.9613700000001 -39.888 399.95337000000006 -40.032 Q 398.94538000000006 -40.248 398.00937000000005 -40.248 Q 396.92937000000006 -40.248 395.77737 -40.104 Q 394.69738 -39.96 393.76137 -39.455999999999996 Q 392.89737 -39.023999999999994 392.24937 -38.16 Q 391.67338 -37.367999999999995 391.67338 -36.071999999999996 Q 391.67338 -33.983999999999995 393.83337 -32.76 Q 395.99338 -31.607999999999997 401.82537 -30.383999999999997 Q 405.28138 -29.807999999999996 408.59337 -28.871999999999996 Q 411.97737 -27.935999999999996 414.56937 -26.279999999999998 Q 417.16138 -24.624 418.74537 -21.959999999999997 Q 420.32937999999996 -19.368 420.32937999999996 -15.263999999999998 z" stroke-linecap="round" />
</g>
<g transform="matrix(1.72 0 0 1.72 420.8 53.02)"  >
<path style="stroke: rgb(130,87,231); stroke-width: 0; stroke-dasharray: none; stroke-linecap: butt; stroke-dashoffset: 0; stroke-linejoin: miter; stroke-miterlimit: 2; fill: rgb(130,87,231); fill-rule: nonzero; opacity: 1;" vector-effect="non-scaling-stroke"  transform=" translate(-446.57, 25.24)" d="M 427.5305 -1.944 L 427.5305 -44.064 Q 427.5305 -46.8 429.40250000000003 -48.528 Q 431.27450000000005 -50.327999999999996 433.7945 -50.327999999999996 L 463.1705 -50.327999999999996 Q 463.89050000000003 -50.327999999999996 464.4665 -49.751999999999995 Q 465.0425 -49.175999999999995 465.0425 -48.455999999999996 L 465.0425 -41.327999999999996 Q 465.0425 -40.535999999999994 464.4665 -40.104 Q 463.9625 -39.6 463.1705 -39.6 L 436.5305 -39.6 Q 438.2585 -39.6 439.3385 -38.376000000000005 Q 440.4905 -37.15200000000001 440.4905 -35.712 L 440.4905 -32.688 Q 440.4905 -31.896 441.0665 -31.176000000000002 Q 441.64250000000004 -30.456000000000003 442.7225 -30.456000000000003 L 458.34650000000005 -30.456000000000003 Q 460.21850000000006 -30.456000000000003 460.21850000000006 -28.584000000000003 L 460.21850000000006 -22.104000000000003 Q 460.21850000000006 -20.232000000000003 458.34650000000005 -20.232000000000003 L 436.5305000000001 -20.232000000000003 Q 438.1865000000001 -20.232000000000003 439.33850000000007 -19.080000000000002 Q 440.49050000000005 -17.928 440.49050000000005 -16.488000000000003 L 440.49050000000005 -13.104000000000003 Q 440.49050000000005 -12.312000000000003 441.0665000000001 -11.592000000000002 Q 441.7145000000001 -10.872000000000002 442.7225000000001 -10.872000000000002 L 463.7465000000001 -10.872000000000002 Q 464.53850000000006 -10.872000000000002 465.0425000000001 -10.296000000000001 Q 465.6185000000001 -9.792000000000002 465.6185000000001 -9.000000000000002 L 465.6185000000001 -1.9440000000000017 Q 465.6185000000001 -1.1520000000000017 465.0425000000001 -0.6480000000000017 Q 464.46650000000005 -0.14400000000000168 463.7465000000001 -0.14400000000000168 L 429.3305000000001 -0.14400000000000168 Q 428.5385000000001 -0.14400000000000168 428.0345000000001 -0.6480000000000017 Q 427.5305000000001 -1.1520000000000017 427.5305000000001 -1.9440000000000017 z" stroke-linecap="round" />
</g>
<g transform="matrix(1.72 0 0 1.72 535.68 52.85)"  >
<path style="stroke: rgb(139,92,227); stroke-width: 0; stroke-dasharray: none; stroke-linecap: butt; stroke-dashoffset: 0; stroke-linejoin: miter; stroke-miterlimit: 2; fill: rgb(139,92,227); fill-rule: nonzero; opacity: 1;" vector-effect="non-scaling-stroke"  transform=" translate(-510.4, 25.31)" d="M 488.91163 -2.016 L 488.91163 -44.135999999999996 Q 488.91163 -45.791999999999994 489.48762 -46.943999999999996 Q 490.13562 -48.096 491.07162 -48.888 Q 492.00763 -49.68 493.08762 -50.04 Q 494.23962 -50.4 495.17563 -50.4 L 512.88762 -50.4 Q 516.55962 -50.4 519.79962 -49.68 Q 523.03962 -49.032 525.48762 -47.376 Q 527.93562 -45.72 529.37563 -42.912 Q 530.81562 -40.176 530.81562 -36.072 Q 530.81562 -32.976 529.23162 -30.456000000000003 Q 527.7196200000001 -27.936000000000003 524.98362 -26.424000000000003 Q 528.22362 -25.128000000000004 530.02363 -21.96 Q 531.89562 -18.864 531.89562 -15.48 Q 531.89562 -11.304 530.38363 -8.424 Q 528.94362 -5.544 526.42363 -3.6719999999999997 Q 523.90363 -1.8719999999999997 520.51963 -1.0079999999999996 Q 517.20762 -0.21599999999999953 513.46362 -0.21599999999999953 L 490.71163 -0.21599999999999953 Q 489.99162 -0.21599999999999953 489.41562 -0.7199999999999995 Q 488.91163 -1.2959999999999994 488.91163 -2.0159999999999996 z M 511.37563 -30.528 Q 513.82362 -30.528 515.33563 -31.823999999999998 Q 516.84762 -33.192 516.84762 -35.711999999999996 Q 516.84762 -38.232 515.26363 -39.455999999999996 Q 513.75162 -40.751999999999995 511.37563000000006 -40.751999999999995 L 498.41562000000005 -40.751999999999995 Q 500.07162000000005 -40.751999999999995 501.22363000000007 -39.528 Q 502.37563000000006 -38.376 502.37563000000006 -36.936 L 502.37563000000006 -32.616 Q 502.37563000000006 -31.968 502.95162000000005 -31.248 Q 503.52762000000007 -30.528000000000002 504.53562000000005 -30.528000000000002 z M 512.02363 -9.936 Q 514.61563 -9.936 516.19962 -11.376 Q 517.85563 -12.815999999999999 517.85563 -15.48 Q 517.85563 -18.072 516.19962 -19.584 Q 514.54363 -21.168 512.02363 -21.168 L 498.41562000000005 -21.168 Q 500.07162000000005 -21.168 501.22363000000007 -19.944 Q 502.37563000000006 -18.791999999999998 502.37563000000006 -17.352 L 502.37563000000006 -12.096 Q 502.37563000000006 -11.376 502.87962000000005 -10.656 Q 503.45562000000007 -9.936 504.53562000000005 -9.936 z" stroke-linecap="round" />
</g>
<g transform="matrix(1.72 0 0 1.72 627.65 53.06)"  >
<path style="stroke: rgb(147,96,223); stroke-width: 0; stroke-dasharray: none; stroke-linecap: butt; stroke-dashoffset: 0; stroke-linejoin: miter; stroke-miterlimit: 2; fill: rgb(147,96,223); fill-rule: nonzero; opacity: 1;" vector-effect="non-scaling-stroke"  transform=" translate(-560.7, 25.2)" d="M 560.69787 0.72 Q 550.47388 0.72 544.56988 -4.248 Q 538.66588 -9.216000000000001 538.30588 -18.864 Q 538.23388 -20.880000000000003 538.23388 -25.056 Q 538.23388 -29.232 538.30588 -31.32 Q 538.59388 -40.824 544.56988 -45.936 Q 550.61788 -51.12 560.69787 -51.12 Q 570.70587 -51.12 576.68187 -45.936 Q 582.72987 -40.824 583.01787 -31.32 Q 583.16187 -27.144 583.16187 -25.056 Q 583.16187 -22.896 583.01787 -18.864 Q 582.65787 -9.216000000000001 576.75387 -4.248000000000001 Q 570.92187 0.7199999999999989 560.69787 0.7199999999999989 z M 560.69787 -10.08 Q 564.44187 -10.08 566.67387 -12.312000000000001 Q 568.9058799999999 -14.616000000000001 569.0498799999999 -19.296 Q 569.1938799999999 -23.472 569.1938799999999 -25.272 Q 569.1938799999999 -27.072 569.0498799999999 -31.104 Q 568.9058799999999 -35.784 566.67387 -38.016 Q 564.44187 -40.32 560.69787 -40.32 Q 556.8818799999999 -40.32 554.64987 -38.016 Q 552.41787 -35.784 552.27387 -31.104 Q 552.20187 -29.088 552.20187 -25.272 Q 552.20187 -21.384 552.27387 -19.296 Q 552.41787 -14.616 554.64987 -12.312 Q 556.8818799999999 -10.079999999999998 560.69787 -10.079999999999998 z" stroke-linecap="round" />
</g>
<g transform="matrix(1.72 0 0 1.72 721.94 52.85)"  >
<path style="stroke: rgb(155,100,220); stroke-width: 0; stroke-dasharray: none; stroke-linecap: butt; stroke-dashoffset: 0; stroke-linejoin: miter; stroke-miterlimit: 2; fill: rgb(155,100,220); fill-rule: nonzero; opacity: 1;" vector-effect="non-scaling-stroke"  transform=" translate(-612.45, 25.31)" d="M 591.49925 -2.016 L 591.49925 -44.135999999999996 Q 591.49925 -46.656 593.2992499999999 -48.528 Q 595.0992499999999 -50.4 597.76325 -50.4 L 600.06725 -50.4 Q 600.93125 -50.4 602.0112499999999 -50.04 Q 603.09125 -49.752 604.2432499999999 -48.168 Q 608.4912499999999 -41.544 611.8752499999998 -36.216 Q 613.9632499999998 -32.976 615.1152499999998 -31.032 Q 616.3392499999999 -29.16 617.3472499999998 -27.504 Q 618.4272499999998 -25.92 619.1472499999998 -24.768 Q 619.8672499999998 -23.616 620.0112499999998 -23.400000000000002 Q 620.1552499999998 -23.256000000000004 620.3712499999998 -23.256000000000004 Q 620.7312499999998 -23.256000000000004 620.7312499999998 -23.616000000000003 L 620.7312499999998 -44.136 Q 620.7312499999998 -45.576 621.2352499999998 -46.728 Q 621.8112499999999 -47.88 622.6752499999999 -48.672000000000004 Q 623.5392499999999 -49.464000000000006 624.6912499999999 -49.896 Q 625.8432499999999 -50.4 626.9952499999998 -50.4 L 631.6752499999998 -50.4 Q 632.4672499999998 -50.4 632.8992499999998 -49.896 Q 633.4032499999998 -49.392 633.4032499999998 -48.528 L 633.4032499999998 -2.088000000000001 Q 633.4032499999998 -1.296000000000001 632.8992499999998 -0.7920000000000009 Q 632.4672499999998 -0.21600000000000097 631.6752499999998 -0.21600000000000097 L 623.5392499999998 -0.21600000000000097 Q 621.8112499999999 -0.21600000000000097 621.0912499999998 -1.584000000000001 Q 616.7712499999998 -8.208 613.3152499999999 -13.464000000000002 Q 611.1552499999999 -16.632 609.9312499999999 -18.504 Q 608.7072499999998 -20.448 607.6272499999999 -22.032 Q 606.6192499999999 -23.688 605.8992499999999 -24.768 Q 605.1792499999999 -25.92 605.0352499999999 -26.136 Q 604.8192499999999 -26.352 604.6752499999999 -26.352 Q 604.2432499999999 -26.352 604.2432499999999 -25.992 L 604.2432499999999 -2.016000000000002 Q 604.2432499999999 -1.152000000000002 603.7392499999999 -0.6480000000000017 Q 603.2352499999998 -0.2160000000000017 602.3712499999998 -0.2160000000000017 L 593.2992499999998 -0.2160000000000017 Q 592.5792499999998 -0.2160000000000017 592.0032499999998 -0.7200000000000017 Q 591.4992499999997 -1.2960000000000016 591.4992499999997 -2.016000000000002 z" stroke-linecap="round" />
</g>
<g transform="matrix(1.72 0 0 1.72 816.56 52.85)"  >
<path style="stroke: rgb(163,105,216); stroke-width: 0; stroke-dasharray: none; stroke-linecap: butt; stroke-dashoffset: 0; stroke-linejoin: miter; stroke-miterlimit: 2; fill: rgb(163,105,216); fill-rule: nonzero; opacity: 1;" vector-effect="non-scaling-stroke"  transform=" translate(-664.34, 25.31)" d="M 643.38987 -2.016 L 643.38987 -44.135999999999996 Q 643.38987 -46.656 645.18988 -48.528 Q 646.98987 -50.4 649.65387 -50.4 L 651.95787 -50.4 Q 652.82187 -50.4 653.90188 -50.04 Q 654.98187 -49.752 656.13387 -48.168 Q 660.38188 -41.544 663.76588 -36.216 Q 665.85388 -32.976 667.00588 -31.032 Q 668.22987 -29.16 669.23788 -27.504 Q 670.31787 -25.92 671.03787 -24.768 Q 671.75788 -23.616 671.90188 -23.400000000000002 Q 672.04588 -23.256000000000004 672.26188 -23.256000000000004 Q 672.62188 -23.256000000000004 672.62188 -23.616000000000003 L 672.62188 -44.136 Q 672.62188 -45.576 673.1258700000001 -46.728 Q 673.7018700000001 -47.88 674.5658700000001 -48.672000000000004 Q 675.4298800000001 -49.464000000000006 676.5818700000001 -49.896 Q 677.7338700000001 -50.4 678.88588 -50.4 L 683.56587 -50.4 Q 684.35788 -50.4 684.78988 -49.896 Q 685.2938700000001 -49.392 685.2938700000001 -48.528 L 685.2938700000001 -2.088000000000001 Q 685.2938700000001 -1.296000000000001 684.78988 -0.7920000000000009 Q 684.35788 -0.21600000000000097 683.56587 -0.21600000000000097 L 675.42988 -0.21600000000000097 Q 673.70187 -0.21600000000000097 672.9818700000001 -1.584000000000001 Q 668.66187 -8.208 665.2058700000001 -13.464000000000002 Q 663.0458800000001 -16.632 661.8218700000001 -18.504 Q 660.5978800000001 -20.448 659.5178700000001 -22.032 Q 658.5098700000001 -23.688 657.7898800000002 -24.768 Q 657.0698800000001 -25.92 656.9258800000001 -26.136 Q 656.7098700000001 -26.352 656.5658700000001 -26.352 Q 656.1338700000001 -26.352 656.1338700000001 -25.992 L 656.1338700000001 -2.016000000000002 Q 656.1338700000001 -1.152000000000002 655.6298700000001 -0.6480000000000017 Q 655.1258700000001 -0.2160000000000017 654.2618800000001 -0.2160000000000017 L 645.1898800000001 -0.2160000000000017 Q 644.4698700000001 -0.2160000000000017 643.8938700000001 -0.7200000000000017 Q 643.3898700000001 -1.2960000000000016 643.3898700000001 -2.016000000000002 z" stroke-linecap="round" />
</g>
<g transform="matrix(1.72 0 0 1.72 907.97 53.02)"  >
<path style="stroke: rgb(172,109,212); stroke-width: 0; stroke-dasharray: none; stroke-linecap: butt; stroke-dashoffset: 0; stroke-linejoin: miter; stroke-miterlimit: 2; fill: rgb(172,109,212); fill-rule: nonzero; opacity: 1;" vector-effect="non-scaling-stroke"  transform=" translate(-714.32, 25.24)" d="M 695.2805 -1.944 L 695.2805 -44.064 Q 695.2805 -46.8 697.1524999999999 -48.528 Q 699.0244999999999 -50.327999999999996 701.5445 -50.327999999999996 L 730.9205 -50.327999999999996 Q 731.6405 -50.327999999999996 732.2165 -49.751999999999995 Q 732.7925 -49.175999999999995 732.7925 -48.455999999999996 L 732.7925 -41.327999999999996 Q 732.7925 -40.535999999999994 732.2165 -40.104 Q 731.7125 -39.6 730.9205 -39.6 L 704.2805 -39.6 Q 706.0084999999999 -39.6 707.0885 -38.376000000000005 Q 708.2405 -37.15200000000001 708.2405 -35.712 L 708.2405 -32.688 Q 708.2405 -31.896 708.8165 -31.176000000000002 Q 709.3925 -30.456000000000003 710.4725 -30.456000000000003 L 726.0965 -30.456000000000003 Q 727.9685 -30.456000000000003 727.9685 -28.584000000000003 L 727.9685 -22.104000000000003 Q 727.9685 -20.232000000000003 726.0965 -20.232000000000003 L 704.2805 -20.232000000000003 Q 705.9364999999999 -20.232000000000003 707.0885 -19.080000000000002 Q 708.2405 -17.928 708.2405 -16.488000000000003 L 708.2405 -13.104000000000003 Q 708.2405 -12.312000000000003 708.8165 -11.592000000000002 Q 709.4645 -10.872000000000002 710.4725 -10.872000000000002 L 731.4965 -10.872000000000002 Q 732.2885 -10.872000000000002 732.7925 -10.296000000000001 Q 733.3685 -9.792000000000002 733.3685 -9.000000000000002 L 733.3685 -1.9440000000000017 Q 733.3685 -1.1520000000000017 732.7925 -0.6480000000000017 Q 732.2165 -0.14400000000000168 731.4965 -0.14400000000000168 L 697.0805 -0.14400000000000168 Q 696.2885 -0.14400000000000168 695.7845 -0.6480000000000017 Q 695.2805 -1.1520000000000017 695.2805 -1.9440000000000017 z" stroke-linecap="round" />
</g>
<g transform="matrix(1.72 0 0 1.72 996.16 53.19)"  >
<path style="stroke: rgb(180,114,209); stroke-width: 0; stroke-dasharray: none; stroke-linecap: butt; stroke-dashoffset: 0; stroke-linejoin: miter; stroke-miterlimit: 2; fill: rgb(180,114,209); fill-rule: nonzero; opacity: 1;" vector-effect="non-scaling-stroke"  transform=" translate(-762.39, 25.09)" d="M 737.58613 -0.432 Q 737.15413 -1.008 737.15413 -1.512 Q 737.15413 -2.016 737.22613 -2.16 L 753.93012 -48.096000000000004 Q 754.72212 -50.184000000000005 756.81012 -50.184000000000005 L 767.9701299999999 -50.184000000000005 Q 770.0581299999999 -50.184000000000005 770.8501299999999 -48.096000000000004 L 787.5541199999999 -2.1600000000000037 Q 787.6261199999999 -2.0160000000000036 787.6261199999999 -1.5120000000000036 Q 787.6261199999999 -0.9360000000000036 787.1221199999999 -0.4320000000000035 Q 786.69012 0 786.11413 0 L 776.82613 0 Q 775.02612 0 774.3781200000001 -1.584 L 770.63413 -11.735999999999999 Q 768.0421200000001 -10.727999999999998 765.3781200000001 -10.079999999999998 Q 762.7141200000001 -9.431999999999999 760.1941200000001 -9.072 Q 757.7461200000001 -8.783999999999999 755.5861300000001 -8.639999999999999 Q 753.4261200000001 -8.568 751.8421200000001 -8.568 Q 750.8341200000001 -8.568 750.1141200000002 -8.568 Q 749.3941300000001 -8.568 749.0341300000002 -8.639999999999999 Q 750.4021200000002 -8.495999999999999 751.1941200000002 -7.199999999999999 Q 752.0581300000002 -5.975999999999999 751.4101200000002 -4.319999999999999 L 750.4021200000002 -1.5839999999999992 Q 749.75413 0 747.95412 0 L 738.66612 0 Q 738.16212 0 737.58613 -0.432 z M 755.87413 -18.863999999999997 Q 757.89012 -19.007999999999996 760.05012 -19.368 Q 761.92213 -19.656 763.93813 -20.16 Q 766.02612 -20.736 767.89813 -21.744 L 762.3541200000001 -37.584 z" stroke-linecap="round" />
</g>
<g transform="matrix(1.72 0 0 1.72 1091.58 53.75)"  >
<path style="stroke: rgb(188,118,205); stroke-width: 0; stroke-dasharray: none; stroke-linecap: butt; stroke-dashoffset: 0; stroke-linejoin: miter; stroke-miterlimit: 2; fill: rgb(188,118,205); fill-rule: nonzero; opacity: 1;" vector-effect="non-scaling-stroke"  transform=" translate(-814.78, 24.8)" d="M 793.14875 -19.152 L 793.14875 -44.064 Q 793.14875 -45.504 793.72475 -46.656 Q 794.30075 -47.808 795.16475 -48.6 Q 796.1007500000001 -49.392 797.18075 -49.824 Q 798.33275 -50.256 799.41275 -50.256 L 804.7407499999999 -50.256 Q 805.53275 -50.256 806.03675 -49.68 Q 806.61275 -49.176 806.61275 -48.384 L 806.61275 -19.296 Q 806.61275 -15.192 808.55675 -12.744 Q 810.5727499999999 -10.368 814.82075 -10.368 Q 819.06875 -10.368 821.01275 -12.816 Q 822.9567499999999 -15.264000000000001 822.9567499999999 -19.296 L 822.9567499999999 -44.064 Q 822.9567499999999 -45.576 823.53275 -46.728 Q 824.18075 -47.88 825.0447499999999 -48.672000000000004 Q 825.98075 -49.464000000000006 827.0607499999999 -49.824000000000005 Q 828.2127499999999 -50.25600000000001 829.2207499999998 -50.25600000000001 L 834.5487499999998 -50.25600000000001 Q 835.3407499999998 -50.25600000000001 835.8447499999999 -49.68000000000001 Q 836.4207499999999 -49.17600000000001 836.4207499999999 -48.38400000000001 L 836.4207499999999 -19.152000000000008 Q 836.4207499999999 -14.040000000000008 834.9087499999999 -10.296000000000008 Q 833.39675 -6.5520000000000085 830.5167499999999 -4.104000000000008 Q 827.7087499999999 -1.7280000000000082 823.7487499999999 -0.504000000000008 Q 819.7887499999998 0.6479999999999919 814.8927499999999 0.6479999999999919 Q 809.9967499999999 0.6479999999999919 805.9647499999999 -0.504000000000008 Q 802.0047499999998 -1.656000000000008 799.1247499999998 -4.104000000000008 Q 796.2447499999998 -6.5520000000000085 794.6607499999998 -10.296000000000008 Q 793.1487499999998 -14.040000000000008 793.1487499999998 -19.152000000000008 z" stroke-linecap="round" />
</g>
<g transform="matrix(0.09 0 0 0.09 538.67 55.33)" id="icon"  >
</g>
</svg>