<?xml version="1.0" encoding="UTF-8"?>
<svg width="87px" height="28px" viewBox="0 0 87 28" version="1.1" xmlns="http://www.w3.org/2000/svg" xmlns:xlink="http://www.w3.org/1999/xlink">
    <title>Hitachi logo</title>
    <defs>
        <polygon id="path-1" points="0.164600598 0.0917311178 33.1766427 0.0917311178 33.1766427 13.5783452 0.164600598 13.5783452"/>
    </defs>
    <g id="Home" stroke="none" stroke-width="1" fill="none" fill-rule="evenodd">
        <g id="Hitachi-Rail-Home-1366" transform="translate(-174.000000, -15.000000)">
            <g id="Headers/Option-1---Simple/Dark-on-light/1-DoL-1366">
                <g id="WEBSITE-HEADER">
                    <g>
                        <g id="Hitachi" transform="translate(174.000000, 15.000000)">
                            <polyline id="Fill-1" fill="#070808" points="5.48630194 13.3117885 5.48630194 0.502287009 8.45032687 0.502287009 8.45032687 5.55853776 14.8006039 5.55853776 14.8006039 0.502287009 17.9383878 0.502287009 17.9383878 13.3117885 14.8418144 13.3117885 14.8418144 7.68727795 8.45032687 7.68727795 8.45032687 13.3117885 5.48630194 13.3117885"/>
                            <polygon id="Fill-2" fill="#070808" points="20.5127202 13.3120514 23.4769861 13.3120514 23.4769861 0.502287009 20.5127202 0.502287009"/>
                            <polyline id="Fill-3" fill="#070808" points="24.617626 0.502287009 37.3345679 0.502287009 37.3345679 2.63102719 32.5905374 2.63102719 32.5905374 13.3117885 29.493964 13.3117885 29.493964 2.63102719 24.617626 2.63102719 24.617626 0.502287009"/>
                            <path d="M44.3131247,8.46817523 L42.1176399,2.71461027 L39.8669668,8.46817523 L44.3131247,8.46817523 Z M34.6929972,13.3117885 L40.1298947,0.502287009 L43.9644017,0.502287009 L49.4574515,13.3117885 L46.0757784,13.3117885 L44.9922548,10.5974411 L39.1663878,10.5974411 L38.1734792,13.3117885 L34.6929972,13.3117885 L34.6929972,13.3117885 Z" id="Fill-4" fill="#070808"/>
                            <polyline id="Fill-5" fill="#070808" points="63.8676399 13.3117885 63.8686039 0.502287009 66.9646953 0.502287009 66.9646953 5.55853776 73.3144903 5.55853776 73.3144903 0.502287009 76.3209307 0.502287009 76.3197258 13.3117885 73.3557008 13.3117885 73.3561828 7.68727795 66.9646953 7.68727795 66.9634903 13.3117885 63.8676399 13.3117885"/>
                            <g id="Group-9" transform="translate(48.681440, 0.000000)">
                                <mask id="mask-2" fill="white">
                                    <use xlink:href="#path-1"/>
                                </mask>
                                <g id="Clip-7"/>
                                <polyline id="Fill-6" fill="#070808" mask="url(#mask-2)" points="33.1766427 13.3117885 30.2123767 13.3117885 30.2133407 0.502287009 33.1766427 0.502287009 33.1766427 13.3117885"/>
                                <path d="M10.2799778,4.79866767 C10.2994986,3.45029909 9.5615651,2.18761631 7.09544044,2.17526284 C3.90246814,2.15922961 3.61303047,5.24339275 3.60242659,6.90690634 C3.57712188,10.4812659 4.98068975,11.5436647 7.27136842,11.590713 C9.5177036,11.6374985 10.2994986,10.0751782 10.2799778,8.72680967 L13.5842909,8.72680967 C13.4384875,11.9379245 11.4358006,13.5383565 7.27136842,13.5777825 C2.29839058,13.6253565 0.163396122,10.6502719 0.164600598,6.90690634 C0.164600598,3.16354079 2.25477008,0.103558912 7.13930194,0.0916960402 C10.5978532,0.0833202417 13.3056981,1.58729003 13.4517424,4.79866767 L10.2799778,4.79866767" id="Fill-8" fill="#070808" mask="url(#mask-2)"/>
                            </g>
                            <path d="M2.82810249,24.8833142 L1.218,24.8833142 C1.218,24.8833142 1.218,19.0222477 1.218,18.6187885 C1.218,18.2150665 1.3483795,17.6339275 0.31498338,17.6339275 L0,17.6339275 L0,17.1752719 C0,17.1752719 2.23910526,17.0656677 2.8449723,16.8543444 L2.82810249,24.8833142" id="Fill-10" fill="#070808"/>
                            <path d="M64.114903,24.9332538 L62.6185512,24.9332538 C62.6185512,24.9332538 62.6185512,19.0721873 62.6185512,18.6684653 C62.6185512,18.265006 62.7489307,17.5096042 61.7152936,17.5096042 L61.4007922,17.5096042 L61.4007922,17.0506858 C61.4007922,17.0506858 64.0751385,17.0564683 64.6918504,17.0564683 L68.3190997,22.974571 L68.3190997,17.071713 L69.8140055,17.071713 L69.8140055,24.9524411 L67.9727867,24.9524411 L64.1103241,18.7780695 L64.114903,24.9332538" id="Fill-11" fill="#070808"/>
                            <path d="M48.0447258,24.934568 L46.6413989,24.934568 C46.6413989,24.934568 46.6413989,18.8795257 46.6413989,18.4760665 C46.6413989,18.1935136 46.7667175,17.4912054 46.0473407,17.4912054 L45.7323573,17.4912054 L45.7323573,16.9644743 C45.7323573,16.9644743 47.4422327,16.8635438 48.0478587,16.6524834 L48.0478587,20.4405317 C48.0478587,20.4405317 48.6674626,19.2574894 49.9789695,19.2574894 C51.2909584,19.2574894 51.5685873,20.3396012 51.5685873,21.045852 C51.5685873,21.7521027 51.5685873,24.934568 51.5685873,24.934568 L50.2397285,24.934568 L50.2397285,21.0182538 C50.2397285,21.0182538 50.1642964,20.3028036 49.4410637,20.3028036 C48.717831,20.3028036 48.0618366,21.1097221 48.0618366,21.7613021 C48.0618366,22.4120937 48.0447258,24.934568 48.0447258,24.934568" id="Fill-12" fill="#070808"/>
                            <path d="M4.44784488,20.0759728 L4.39627147,19.6643656 C4.39627147,19.6643656 6.44306094,19.3755045 6.68454017,19.2982296 L6.68454017,20.4576163 C6.68454017,20.4576163 7.40054294,19.2982296 8.65878947,19.2982296 C9.91679501,19.2982296 10.1987618,20.4097795 10.1987618,20.765139 C10.1987618,21.11971 10.1987618,24.9521782 10.1987618,24.9521782 L8.79977285,24.9521782 C8.79977285,24.9521782 8.79977285,21.0608338 8.79977285,20.8594985 C8.79977285,20.658426 8.62673684,20.2205347 8.08401108,20.2205347 C7.54128532,20.2205347 6.72791967,21.2379879 6.72791967,21.6995347 C6.72791967,22.1605559 6.72791967,24.9403505 6.72791967,24.9403505 L5.28555125,24.9403505 C5.28555125,24.9403505 5.28555125,21.0371782 5.28555125,20.6936465 C5.28555125,20.3506405 5.34772853,20.0759728 4.44784488,20.0759728" id="Fill-13" fill="#070808"/>
                            <path d="M15.3510416,20.6789275 L15.3510416,19.4517281 C15.3510416,19.4517281 14.352831,19.274574 13.7782936,19.274574 C13.2035152,19.274574 11.8693546,19.5589668 11.8693546,20.9073353 C11.8693546,22.6699396 14.5157452,22.6933323 14.5157452,23.7226133 C14.5157452,24.5973444 13.0189114,24.6215257 12.0320277,23.8408912 C11.9703324,23.792003 11.8693546,23.8408912 11.8693546,23.8408912 L11.8693546,24.9408761 C11.8693546,24.9408761 12.6771773,25.1235498 13.4794571,25.1235498 C14.2817368,25.1235498 15.7414571,24.8346888 15.7414571,23.4150906 C15.7414571,21.7108369 13.0297562,21.3089547 13.0297562,20.5280574 C13.0297562,19.7003746 14.6241939,19.8862024 15.3510416,20.6789275" id="Fill-14" fill="#070808"/>
                            <path d="M18.788867,22.3663595 C18.788867,23.8889909 19.3605125,24.3108489 19.8822715,24.3108489 C20.4033075,24.3108489 21.0173684,23.9439245 21.0173684,22.0727674 C21.0173684,20.2018731 20.1680942,20.1196042 19.8735956,20.1196042 C19.2932742,20.1196042 18.788867,20.8442538 18.788867,22.3663595 Z M17.4228947,20.7893202 C17.4228947,20.4457885 17.3621634,20.1146103 16.4620388,20.1146103 L16.4620388,19.6336133 C16.4620388,19.6336133 18.5572687,19.4217644 18.7503075,19.2913958 L18.7503075,20.0199879 L18.963349,20.0199879 C18.963349,20.0199879 19.2450748,19.3095317 20.3076316,19.3095317 C21.3709114,19.3095317 22.4773296,19.9847674 22.4773296,22.1137704 C22.4773296,24.2427734 21.5988947,25.0828097 20.3076316,25.0828097 C19.0168504,25.0828097 18.9411773,24.5148127 18.9411773,24.5148127 L18.7247618,24.5148127 L18.7247618,27.3353474 L17.4334986,27.3353474 L17.4228947,20.7893202 L17.4228947,20.7893202 Z" id="Fill-15" fill="#070808"/>
                            <path d="M24.4062715,20.7017946 C24.4062715,20.3585257 24.3727729,20.0841208 23.4728892,20.0841208 L23.4803601,19.6725136 C23.4803601,19.6725136 25.5273906,19.3833897 25.7686288,19.305852 L25.7686288,24.9272085 L24.4084404,24.9272085 L24.4062715,20.7017946" id="Fill-16" fill="#070808"/>
                            <path d="M25.9534737,17.7345952 C25.9534737,18.1808973 25.5729391,18.5420393 25.1041994,18.5420393 C24.6354598,18.5420393 24.2549252,18.1808973 24.2549252,17.7345952 C24.2549252,17.2888187 24.6354598,16.9276767 25.1041994,16.9276767 C25.5729391,16.9276767 25.9534737,17.2888187 25.9534737,17.7345952" id="Fill-17" fill="#1A1919"/>
                            <path d="M28.1137729,24.9256314 L28.102687,20.7730242 C28.102687,20.4294924 28.0421967,20.0988399 27.142072,20.0988399 L27.142072,19.6175801 C27.142072,19.6175801 29.2368199,19.4057311 29.4303407,19.2756254 L29.4303407,20.2846677 L29.5612022,20.2846677 C29.5612022,20.2846677 29.9901773,19.2756254 30.9486233,19.2756254 C31.3691634,19.279568 31.6383573,19.3218852 31.6383573,19.3218852 L31.6383573,20.7154622 C31.6383573,20.7154622 31.2597507,20.4770665 30.9151247,20.4770665 C30.5702576,20.4770665 29.5023989,20.8623897 29.5023989,21.797574 C29.5023989,22.7335468 29.5023989,24.934568 29.5023989,24.934568 L28.1137729,24.9256314" id="Fill-18" fill="#070808"/>
                            <path d="M76.2522465,19.3765559 L76.2522465,19.8580785 C76.2522465,19.8580785 76.912338,19.842571 77.170205,20.123284 C77.427831,20.4042598 78.5031607,21.9734139 78.5031607,21.9734139 L77.07959,23.7901631 L78.6545069,23.7901631 L79.2678449,23.1217613 L80.6239363,25.0126314 L82.2593435,25.0126314 L78.3824211,19.3949547 L76.2522465,19.3765559" id="Fill-19" fill="#070808"/>
                            <path d="M34.8171108,19.2388278 C33.9425319,19.2388278 32.2353075,19.3857553 32.2353075,22.0088973 C32.2353075,24.6320393 34.0854432,25.1729637 35.3133241,25.1729637 C36.541205,25.1729637 37.0709169,24.8060393 37.0709169,24.8060393 L37.0709169,23.9807221 C37.0709169,23.9807221 36.541205,24.3019124 35.8514709,24.3019124 C33.8752936,24.3019124 33.7658809,21.6971692 33.7658809,21.6971692 L37.2138283,21.6971692 C37.2138283,19.4590876 35.6916898,19.2388278 34.8171108,19.2388278 Z M35.8514709,21.0369154 L33.7911856,21.0369154 C33.7911856,21.0369154 33.8752936,19.8851511 34.8465125,19.8851511 C35.8179723,19.8851511 35.8514709,21.0369154 35.8514709,21.0369154 L35.8514709,21.0369154 Z" id="Fill-20" fill="#070808"/>
                            <path d="M55.4703324,19.2388278 C54.5959945,19.2388278 52.8887701,19.3857553 52.8887701,22.0088973 C52.8887701,24.6320393 54.7386648,25.1729637 55.9665457,25.1729637 C57.1944266,25.1729637 57.7241385,24.8060393 57.7241385,24.8060393 L57.7241385,23.9807221 C57.7241385,23.9807221 57.1944266,24.3019124 56.5044515,24.3019124 C54.5287562,24.3019124 54.4193435,21.6971692 54.4193435,21.6971692 L57.8670499,21.6971692 C57.8670499,19.4590876 56.3449114,19.2388278 55.4703324,19.2388278 Z M56.5044515,21.0369154 L54.4446482,21.0369154 C54.4446482,21.0369154 54.5287562,19.8851511 55.4997341,19.8851511 C56.4714349,19.8851511 56.5044515,21.0369154 56.5044515,21.0369154 L56.5044515,21.0369154 Z" id="Fill-21" fill="#070808"/>
                            <path d="M73.7020139,19.2388278 C72.8274349,19.2388278 71.1204515,19.3857553 71.1204515,22.0088973 C71.1204515,24.6320393 72.9703463,25.1729637 74.1979861,25.1729637 C75.425867,25.1729637 75.9555789,24.8060393 75.9555789,24.8060393 L75.9555789,23.9807221 C75.9555789,23.9807221 75.425867,24.3019124 74.736374,24.3019124 C72.7601967,24.3019124 72.6505429,21.6971692 72.6505429,21.6971692 L76.0987313,21.6971692 C76.0987313,19.4590876 74.5763518,19.2388278 73.7020139,19.2388278 Z M74.736374,21.0369154 L72.6756066,21.0369154 C72.6756066,21.0369154 72.7601967,19.8851511 73.7314155,19.8851511 C74.7026343,19.8851511 74.736374,21.0369154 74.736374,21.0369154 L74.736374,21.0369154 Z" id="Fill-22" fill="#070808"/>
                            <path d="M41.2083573,20.0554713 L41.2083573,19.3949547 L42.1668033,19.3949547 L42.1668033,17.688861 L43.5460305,17.688861 L43.5460305,19.3857553 L45.1101025,19.3857553 L45.1101025,20.0554713 L43.5544654,20.0554713 C43.5544654,20.0554713 43.5544654,23.5678006 43.5544654,23.8340574 C43.5544654,24.2283172 43.9916343,24.3384471 44.9418864,24.3384471 C44.9418864,24.466713 44.9418864,24.9987009 44.9418864,24.9987009 C44.9418864,24.9987009 44.630759,25.1453656 43.9159612,25.1453656 C43.2011634,25.1453656 42.0993241,25.044435 42.0993241,23.9715227 C42.0993241,22.8983474 42.0993241,20.0554713 42.0993241,20.0554713 L41.2083573,20.0554713" id="Fill-23" fill="#070808"/>
                            <path d="M82.8736454,20.0554713 L82.8736454,19.3949547 L83.8323324,19.3949547 L83.8323324,17.688861 L85.2115596,17.688861 L85.2115596,19.3857553 L86.7758726,19.3857553 L86.7758726,20.0554713 L85.2202355,20.0554713 C85.2202355,20.0554713 85.2202355,23.5678006 85.2202355,23.8340574 C85.2202355,24.2283172 85.6574044,24.3384471 86.6076565,24.3384471 C86.6076565,24.466713 86.6076565,24.9987009 86.6076565,24.9987009 C86.6076565,24.9987009 86.2965291,25.1453656 85.5817313,25.1453656 C84.8669335,25.1453656 83.7653352,25.044435 83.7653352,23.9715227 C83.7653352,22.8983474 83.7653352,20.0554713 83.7653352,20.0554713 L82.8736454,20.0554713" id="Fill-24" fill="#070808"/>
                            <polyline id="Fill-25" fill="#1A1919" points="79.6997119 21.1636042 80.911687 19.3949547 82.4408144 19.3949547 81.0174848 21.1636042 79.6997119 21.1636042"/>
                            <polyline id="Fill-26" fill="#DC3B41" points="84.0791136 15.3593112 85.6766842 15.3593112 83.8323324 17.688861 82.2460886 17.688861 84.0791136 15.3593112"/>
                        </g>
                    </g>
                </g>
            </g>
        </g>
    </g>
</svg>